<?xml version="1.0" encoding="iso-8859-1"?>
<!-- Generator: Adobe Illustrator 17.1.0, SVG Export Plug-In . SVG Version: 6.00 Build 0)  -->
<!DOCTYPE svg PUBLIC "-//W3C//DTD SVG 1.1//EN" "http://www.w3.org/Graphics/SVG/1.1/DTD/svg11.dtd">
<svg version="1.1" id="Capa_1" xmlns="http://www.w3.org/2000/svg" xmlns:xlink="http://www.w3.org/1999/xlink" x="0px" y="0px"
	 viewBox="0 0 440.236 440.236" style="enable-background:new 0 0 440.236 440.236;" xml:space="preserve">
<path d="M440.215,330.123c-0.269-32.549-26.83-58.947-59.44-58.947H340.27l-96.421-47.573c0.156-0.974,0.26-1.966,0.26-2.984
	s-0.104-2.01-0.26-2.984l96.421-47.573h64.173c0.008,0.001,0.015,0.001,0.02,0c3.037,0,5.5-2.462,5.5-5.5
	c0-0.172-0.009-0.342-0.023-0.51c-0.275-20.962-17.413-37.933-38.44-37.933H344v-29.5c0-2.73-2.002-5.047-4.703-5.442
	c-0.851-0.124-21.001-2.912-34.892,9.095c-7.091,6.129-11.162,14.811-12.157,25.847h-41.595c-0.197-0.138-0.401-0.268-0.62-0.382
	c-4.377-2.271-107.57-55.618-140.533-55.618c-8.097,0-15.05,2.938-20.668,8.734c-12.505,12.9-14.709,36.989-15.052,47.66
	c-18.619,2.661-32.981,18.706-32.981,38.048c0,3.038,2.463,5.5,5.5,5.5h64.174l96.421,47.573c-0.156,0.974-0.26,1.966-0.26,2.984
	s0.104,2.01,0.26,2.984l-96.421,47.573h-51.03C26.666,271.175,0,297.841,0,330.618c0,3.038,2.463,5.5,5.5,5.5h61.279
	c-2.011,3.368-3.171,7.3-3.171,11.5c0,12.407,10.094,22.5,22.5,22.5c12.406,0,22.5-10.093,22.5-22.5c0-4.2-1.16-8.132-3.171-11.5
	h229.342c-2.011,3.368-3.171,7.3-3.171,11.5c0,12.407,10.094,22.5,22.5,22.5c12.406,0,22.5-10.093,22.5-22.5
	c0-4.2-1.16-8.132-3.171-11.5h61.279c0.007,0,0.015,0,0.02,0c3.038,0,5.5-2.462,5.5-5.5
	C440.236,330.451,440.229,330.286,440.215,330.123z M311.552,108.633c6.655-5.785,15.919-6.796,21.448-6.816v24.301h-29.7
	C304.171,118.513,306.935,112.646,311.552,108.633z M96.74,86.498c3.514-3.62,7.688-5.38,12.76-5.38
	c20.915,0,80.587,27.158,116.849,45H84.812C85.19,116.508,87.154,96.373,96.74,86.498z M79.241,137.118H371.5
	c13.249,0,24.335,9.438,26.889,21.943H52.353C54.906,146.556,65.992,137.118,79.241,137.118z M135.333,170.061h180.076
	l-76.426,37.708c-3.416-3.618-8.244-5.888-13.612-5.888c-5.368,0-10.196,2.27-13.612,5.888L135.333,170.061z M211.759,233.467
	c3.416,3.618,8.244,5.888,13.612,5.888c5.368,0,10.196-2.27,13.612-5.888l76.426,37.708H135.333L211.759,233.467z M97.608,347.618
	c0,6.341-5.159,11.5-11.5,11.5c-6.341,0-11.5-5.159-11.5-11.5c0-6.341,5.159-11.5,11.5-11.5
	C92.449,336.118,97.608,341.277,97.608,347.618z M365.608,347.618c0,6.341-5.159,11.5-11.5,11.5s-11.5-5.159-11.5-11.5
	c0-6.341,5.159-11.5,11.5-11.5S365.608,341.277,365.608,347.618z M11.311,325.118c2.738-24.133,23.279-42.943,48.132-42.943h321.332
	c24.853,0,45.394,18.81,48.132,42.943H11.311z"/>
<g>
</g>
<g>
</g>
<g>
</g>
<g>
</g>
<g>
</g>
<g>
</g>
<g>
</g>
<g>
</g>
<g>
</g>
<g>
</g>
<g>
</g>
<g>
</g>
<g>
</g>
<g>
</g>
<g>
</g>
</svg>
