<?xml version="1.0" encoding="iso-8859-1"?>
<!-- Generator: Adobe Illustrator 19.0.0, SVG Export Plug-In . SVG Version: 6.00 Build 0)  -->
<svg version="1.1" id="Layer_1" xmlns="http://www.w3.org/2000/svg" xmlns:xlink="http://www.w3.org/1999/xlink" x="0px" y="0px"
	 viewBox="0 0 425.608 425.608" style="enable-background:new 0 0 425.608 425.608;" xml:space="preserve">
<g>
	<g>
		<g>
			<path d="M345.26,36.304H80.349c-15.361,0-27.858,12.497-27.858,27.858v180.33c0,4.141,3.358,7.499,7.5,7.499h305.627
				c4.143,0,7.5-3.358,7.5-7.5V64.162C373.118,48.801,360.621,36.304,345.26,36.304z M358.118,236.992H67.491V103.68h253.213
				c4.143,0,7.5-3.358,7.5-7.5c0-4.142-3.357-7.5-7.5-7.5H67.491V64.162c0-7.09,5.768-12.858,12.858-12.858H345.26
				c7.09,0,12.858,5.768,12.858,12.858V236.992z"/>
			<path d="M418.109,114.489h-22.991V64.162c0-27.492-22.366-49.858-49.858-49.858H80.349c-27.492,0-49.858,22.366-49.858,49.858
				v50.327H7.5c-4.142,0-7.5,3.358-7.5,7.5v75.502c0,4.142,3.358,7.5,7.5,7.5h22.991v152.538c0,4.142,3.358,7.5,7.5,7.5h6.923
				v29.876c0,9.042,7.356,16.399,16.399,16.399h34.1c9.042,0,16.399-7.356,16.399-16.399v-29.876h48.184
				c1.486,13.728,13.141,24.452,27.258,24.452h64.799c14.116,0,25.773-10.724,27.258-24.452h34.485v29.876
				c0,9.042,7.356,16.399,16.399,16.399h34.1c9.042,0,16.398-7.356,16.398-16.399v-29.876h6.924c4.143,0,7.5-3.358,7.5-7.5V204.991
				h22.991c4.143,0,7.5-3.358,7.5-7.5v-75.502C425.609,117.847,422.252,114.489,418.109,114.489z M30.491,189.991H15v-60.502h15.491
				V189.991z M95.413,396.304h-34.1c-0.771,0-1.399-0.627-1.399-1.399v-29.876h36.897v29.876h0.001
				C96.812,395.676,96.185,396.304,95.413,396.304z M252.054,374.48h-64.799c-5.824,0-10.711-4.035-12.048-9.452h88.896
				C262.765,370.446,257.878,374.48,252.054,374.48z M365.694,394.905c0,0.771-0.627,1.399-1.398,1.399h-34.1
				c-0.771,0-1.399-0.627-1.399-1.399v-29.876h36.897V394.905z M380.118,350.029H45.491v-16.861h334.627V350.029z M380.118,318.168
				H45.491V64.162c0-19.221,15.637-34.858,34.858-34.858H345.26c19.221,0,34.858,15.637,34.858,34.858V318.168z M410.609,189.991
				h-15.491v-60.502h15.491V189.991z"/>
			<path d="M121.214,261.17H59.991c-4.142,0-7.5,3.358-7.5,7.5v28.499c0,4.143,3.358,7.5,7.5,7.5h89.722c4.142,0,7.5-3.358,7.5-7.5
				C157.213,277.319,141.064,261.17,121.214,261.17z M81.492,289.67H67.491v-13.499h14.001V289.67z M96.492,289.669V276.17h24.722
				c8.938,0.001,16.589,5.614,19.615,13.499H96.492z"/>
			<path d="M365.618,261.171h-61.223c-19.85,0-35.999,16.149-35.999,35.999c0,4.142,3.357,7.5,7.5,7.5h89.722
				c4.143,0,7.5-3.358,7.5-7.5v-28.499C373.118,264.529,369.761,261.171,365.618,261.171z M329.118,289.67H284.78
				c3.026-7.886,10.678-13.499,19.616-13.499h24.722V289.67z M358.118,289.669h-14.001V276.17h14.001V289.669z"/>
			<path d="M337.745,90.382c-2.478,2.024-3.388,5.518-2.235,8.498c1.104,2.85,3.922,4.803,6.987,4.803
				c3.546,0,6.653-2.577,7.36-6.04C351.24,90.875,343.056,86.044,337.745,90.382z"/>
		</g>
	</g>
</g>
<g>
</g>
<g>
</g>
<g>
</g>
<g>
</g>
<g>
</g>
<g>
</g>
<g>
</g>
<g>
</g>
<g>
</g>
<g>
</g>
<g>
</g>
<g>
</g>
<g>
</g>
<g>
</g>
<g>
</g>
</svg>
