<?xml version="1.0" encoding="iso-8859-1"?>
<!-- Generator: Adobe Illustrator 19.0.0, SVG Export Plug-In . SVG Version: 6.00 Build 0)  -->
<svg version="1.1" id="Layer_1" xmlns="http://www.w3.org/2000/svg" xmlns:xlink="http://www.w3.org/1999/xlink" x="0px" y="0px"
	 viewBox="0 0 511.999 511.999" style="enable-background:new 0 0 511.999 511.999;" xml:space="preserve">
<g>
	<g>
		<path d="M506.633,100.36c-0.126-42.903-32.346-78.581-75.044-83.046l-16.208-1.695l-99.274-0.055
			c-5.632,0-10.199,4.566-10.199,10.199c0,27.519-22.389,49.91-49.91,49.91s-49.91-22.389-49.91-49.91
			c0-5.633-4.566-10.199-10.199-10.199l-99.273,0.055l-16.208,1.695C37.711,21.779,5.493,57.459,5.367,100.362L0.012,212.04
			c-0.134,2.786,0.88,5.507,2.805,7.525c1.925,2.019,4.593,3.163,7.382,3.163h92.844v263.509c0,5.633,4.566,10.199,10.199,10.199
			h286.588c5.632,0,10.199-4.566,10.199-10.199V222.728h91.77c2.789,0,5.459-1.143,7.382-3.163c1.926-2.018,2.938-4.739,2.805-7.525
			L506.633,100.36z M186.429,35.961c4.957,33.951,34.267,60.109,69.571,60.109s64.614-26.158,69.57-60.109h18.095
			c-6.35,43.041-43.008,75.408-87.665,75.408s-81.315-32.366-87.665-75.408H186.429z M410.852,202.329l4.499-46.787
			c0.539-5.607-3.569-10.589-9.176-11.128c-5.599-0.537-10.59,3.569-11.128,9.176l-5.368,55.815l-0.048,3.123v263.509H123.441
			V212.528l-0.047-3.123l-5.367-55.815c-0.54-5.608-5.52-9.722-11.128-9.176c-5.608,0.54-9.716,5.522-9.176,11.128l4.499,46.787
			H20.899l4.855-101.227c0.007-0.163,0.011-0.325,0.011-0.489c0-32.539,24.404-59.628,56.766-63.012l15.679-1.64h49.527
			c2.98,24.66,14.23,47.436,32.262,64.962c20.466,19.889,47.456,30.843,76,30.843c28.544,0,55.535-10.954,76-30.843
			c18.033-17.525,29.283-40.303,32.263-64.962h49.527l15.678,1.64c32.362,3.384,56.767,30.473,56.767,63.012
			c0,0.163,0.004,0.325,0.012,0.489l4.854,101.227H410.852z"/>
	</g>
</g>
<g>
	<g>
		<path d="M356.336,205.449c-0.881-5.564-6.104-9.364-11.668-8.48l-180.526,28.558c-5.564,0.88-9.361,6.103-8.48,11.667
			c0.794,5.024,5.13,8.607,10.062,8.607c0.529,0,1.066-0.042,1.606-0.128l180.526-28.558
			C353.42,216.236,357.217,211.013,356.336,205.449z"/>
	</g>
</g>
<g>
	<g>
		<path d="M356.335,242.166c-0.88-5.564-6.103-9.364-11.667-8.48l-10.709,1.694c-5.564,0.88-9.361,6.103-8.48,11.667
			c0.795,5.024,5.13,8.607,10.061,8.607c0.53,0,1.067-0.042,1.606-0.128l10.709-1.694
			C353.419,252.953,357.216,247.73,356.335,242.166z"/>
	</g>
</g>
<g>
	<g>
		<path d="M308.91,249.669c-0.881-5.564-6.105-9.364-11.668-8.48l-133.1,21.055c-5.564,0.88-9.361,6.103-8.48,11.667
			c0.794,5.024,5.13,8.607,10.062,8.607c0.529,0,1.066-0.042,1.606-0.128l133.1-21.055
			C305.994,260.456,309.791,255.232,308.91,249.669z"/>
	</g>
</g>
<g>
</g>
<g>
</g>
<g>
</g>
<g>
</g>
<g>
</g>
<g>
</g>
<g>
</g>
<g>
</g>
<g>
</g>
<g>
</g>
<g>
</g>
<g>
</g>
<g>
</g>
<g>
</g>
<g>
</g>
</svg>
