<?xml version="1.0" encoding="iso-8859-1"?>
<!-- Generator: Adobe Illustrator 17.1.0, SVG Export Plug-In . SVG Version: 6.00 Build 0)  -->
<!DOCTYPE svg PUBLIC "-//W3C//DTD SVG 1.1//EN" "http://www.w3.org/Graphics/SVG/1.1/DTD/svg11.dtd">
<svg version="1.1" id="Capa_1" xmlns="http://www.w3.org/2000/svg" xmlns:xlink="http://www.w3.org/1999/xlink" x="0px" y="0px"
	 viewBox="0 0 246.037 246.037" style="enable-background:new 0 0 246.037 246.037;" xml:space="preserve">
<g>
	<path d="M217.984,40.463H28.053C12.585,40.463,0,53.048,0,68.516v109.005c0,15.468,12.585,28.053,28.053,28.053h189.932
		c15.468,0,28.053-12.585,28.053-28.053V68.516C246.037,53.048,233.453,40.463,217.984,40.463z M28.053,56.463h189.932
		c6.646,0,12.053,5.407,12.053,12.053v10.697H16V68.516C16,61.87,21.407,56.463,28.053,56.463z M217.984,189.574H28.053
		c-6.646,0-12.053-5.407-12.053-12.053v-63.717h214.037v63.717C230.037,184.167,224.63,189.574,217.984,189.574z"/>
	<circle cx="207.091" cy="161.077" r="8.767"/>
	<circle cx="183.236" cy="161.077" r="8.767"/>
	<circle cx="159.381" cy="161.077" r="8.767"/>
	<circle cx="102.255" cy="161.077" r="8.767"/>
	<circle cx="78.4" cy="161.077" r="8.767"/>
	<circle cx="126.11" cy="161.077" r="8.767"/>
</g>
<g>
</g>
<g>
</g>
<g>
</g>
<g>
</g>
<g>
</g>
<g>
</g>
<g>
</g>
<g>
</g>
<g>
</g>
<g>
</g>
<g>
</g>
<g>
</g>
<g>
</g>
<g>
</g>
<g>
</g>
</svg>
