<?xml version="1.0" encoding="iso-8859-1"?>
<!-- Generator: Adobe Illustrator 18.0.0, SVG Export Plug-In . SVG Version: 6.00 Build 0)  -->
<!DOCTYPE svg PUBLIC "-//W3C//DTD SVG 1.1//EN" "http://www.w3.org/Graphics/SVG/1.1/DTD/svg11.dtd">
<svg version="1.1" id="Capa_1" xmlns="http://www.w3.org/2000/svg" xmlns:xlink="http://www.w3.org/1999/xlink" x="0px" y="0px"
	 viewBox="0 0 73.75 73.75" style="enable-background:new 0 0 73.75 73.75;" xml:space="preserve">
<path style="fill:#231F20;" d="M73.75,55.583v-10.5c0-2.206-1.794-4-4-4h-8.083v-20.75c0-7.168-5.832-13-13-13H40.25
	c-7.168,0-13,5.832-13,13v20.75H4c-2.206,0-4,1.794-4,4v10.5c0,1.2,0.542,2.266,1.382,3c-0.84,0.734-1.382,1.8-1.382,3v0.833
	c0,2.206,1.794,4,4,4h36.792h7.333H69.75c2.206,0,4-1.794,4-4v-0.833c0-1.2-0.542-2.266-1.382-3
	C73.208,57.85,73.75,56.784,73.75,55.583z M59.667,44.359C59.267,44.105,59,43.662,59,43.154V22.13c0-0.507,0.267-0.951,0.667-1.205
	V44.359z M40.25,9.333h8.417c5.554,0,10.147,4.141,10.885,9.495C58.087,19.219,57,20.544,57,22.13v21.024
	c0,1.628,1.143,2.989,2.667,3.337v0.092c0,4.385-2.592,8.307-6.542,10.055V20.031c0-2.757-2.243-5-5-5h-7.333c-2.757,0-5,2.243-5,5
	v36.607c-3.95-1.748-6.542-5.668-6.542-10.055v-0.105c1.502-0.364,2.625-1.711,2.625-3.324V22.13c0-1.571-1.068-2.885-2.512-3.289
	C30.096,13.481,34.692,9.333,40.25,9.333z M29.875,22.13v21.024c0,0.49-0.248,0.923-0.625,1.18V20.949
	C29.627,21.207,29.875,21.64,29.875,22.13z M2,55.583v-10.5c0-1.103,0.897-2,2-2h23.25v3.5c0,4.539,2.346,8.658,6.063,11H10.75
	v-2.167c0-0.552-0.447-1-1-1s-1,0.448-1,1v2.167H4C2.897,57.583,2,56.687,2,55.583z M2,62.417v-0.833c0-1.103,0.897-2,2-2h4.75v1.72
	c0,0.552,0.447,1,1,1s1-0.448,1-1v-1.72h25.042v1.833c0,1.13,0.391,2.162,1.026,3H4C2.897,64.417,2,63.52,2,62.417z M40.792,64.417
	c-1.654,0-3-1.346-3-3V20.031c0-1.654,1.346-3,3-3h7.333c1.654,0,3,1.346,3,3v41.386c0,1.654-1.346,3-3,3H40.792z M71.75,61.583
	v0.833c0,1.103-0.897,2-2,2H52.099c0.635-0.838,1.026-1.87,1.026-3v-1.833H63.75v1.72c0,0.552,0.447,1,1,1s1-0.448,1-1v-1.72h4
	C70.853,59.583,71.75,60.48,71.75,61.583z M65.75,57.583v-2.167c0-0.552-0.447-1-1-1s-1,0.448-1,1v2.167h-8.147
	c3.717-2.343,6.064-6.463,6.064-11v-3.5h8.083c1.103,0,2,0.897,2,2v10.5c0,1.103-0.897,2-2,2H65.75z M2,38.708
	c0-0.829,0.672-1.5,1.5-1.5h8.875c0.828,0,1.5,0.671,1.5,1.5s-0.672,1.5-1.5,1.5H3.5C2.672,40.208,2,39.537,2,38.708z
	 M47.521,22.333c0,0.552-0.447,1-1,1h-4.125c-0.553,0-1-0.448-1-1s0.447-1,1-1h4.125C47.073,21.333,47.521,21.781,47.521,22.333z
	 M47.521,58.583c0,0.552-0.447,1-1,1h-4.125c-0.553,0-1-0.448-1-1s0.447-1,1-1h4.125C47.073,57.583,47.521,58.031,47.521,58.583z"/>
<g>
</g>
<g>
</g>
<g>
</g>
<g>
</g>
<g>
</g>
<g>
</g>
<g>
</g>
<g>
</g>
<g>
</g>
<g>
</g>
<g>
</g>
<g>
</g>
<g>
</g>
<g>
</g>
<g>
</g>
</svg>
