<?xml version="1.0" encoding="iso-8859-1"?>
<!-- Generator: Adobe Illustrator 19.0.0, SVG Export Plug-In . SVG Version: 6.00 Build 0)  -->
<svg version="1.1" id="Layer_1" xmlns="http://www.w3.org/2000/svg" xmlns:xlink="http://www.w3.org/1999/xlink" x="0px" y="0px"
	 viewBox="0 0 512 512" style="enable-background:new 0 0 512 512;" xml:space="preserve">
<g>
	<g>
		<path d="M234.442,56.051H126.653c-4.466,0-8.084,3.62-8.084,8.084c0,4.465,3.619,8.084,8.084,8.084h107.789
			c4.466,0,8.084-3.62,8.084-8.084C242.526,59.67,238.908,56.051,234.442,56.051z"/>
	</g>
</g>
<g>
	<g>
		<path d="M299.116,56.051h-21.558c-4.466,0-8.084,3.62-8.084,8.084c0,4.465,3.618,8.084,8.084,8.084h21.558
			c4.466,0,8.084-3.62,8.084-8.084C307.2,59.67,303.582,56.051,299.116,56.051z"/>
	</g>
</g>
<g>
	<g>
		<path d="M385.347,56.051h-43.116c-4.466,0-8.084,3.62-8.084,8.084c0,4.465,3.619,8.084,8.084,8.084h43.116
			c4.466,0,8.084-3.62,8.084-8.084C393.432,59.67,389.813,56.051,385.347,56.051z"/>
	</g>
</g>
<g>
	<g>
		<path d="M299.116,99.166H126.653c-4.466,0-8.084,3.62-8.084,8.084c0,4.465,3.619,8.084,8.084,8.084h172.463
			c4.466,0,8.084-3.62,8.084-8.084C307.2,102.786,303.582,99.166,299.116,99.166z"/>
	</g>
</g>
<g>
	<g>
		<path d="M385.347,99.166h-43.116c-4.466,0-8.084,3.62-8.084,8.084c0,4.465,3.619,8.084,8.084,8.084h43.116
			c4.466,0,8.084-3.62,8.084-8.084C393.432,102.786,389.813,99.166,385.347,99.166z"/>
	</g>
</g>
<g>
	<g>
		<path d="M169.768,142.282h-43.116c-4.466,0-8.084,3.62-8.084,8.084c0,4.465,3.619,8.084,8.084,8.084h43.116
			c4.466,0,8.084-3.62,8.084-8.084C177.853,145.902,174.234,142.282,169.768,142.282z"/>
	</g>
</g>
<g>
	<g>
		<path d="M299.116,142.282h-86.232c-4.466,0-8.084,3.62-8.084,8.084c0,4.465,3.619,8.084,8.084,8.084h86.232
			c4.466,0,8.084-3.62,8.084-8.084C307.2,145.902,303.582,142.282,299.116,142.282z"/>
	</g>
</g>
<g>
	<g>
		<path d="M385.347,142.282h-21.558c-4.466,0-8.084,3.62-8.084,8.084c0,4.465,3.618,8.084,8.084,8.084h21.558
			c4.466,0,8.084-3.62,8.084-8.084C393.432,145.902,389.813,142.282,385.347,142.282z"/>
	</g>
</g>
<g>
	<g>
		<path d="M450.099,53.895h-13.551V28.653C436.547,12.854,423.693,0,407.895,0h-303.79C88.307,0,75.453,12.854,75.453,28.653v25.242
			H61.901c-16.302,0-29.565,13.262-29.565,29.563v420.458c0,4.465,3.618,8.084,8.084,8.084h431.158c4.466,0,8.084-3.62,8.084-8.084
			V83.458C479.663,67.157,466.401,53.895,450.099,53.895z M48.505,83.458c0-7.386,6.009-13.395,13.396-13.395h13.551v108.183
			l-26.947-13.474V83.458z M54.026,495.832l31.468-57.804c1.25-0.96,2.774-1.48,4.378-1.48h332.257c1.603,0,3.127,0.52,4.378,1.48
			l31.466,57.804H54.026z M463.495,472.158l-23.352-42.897c-0.399-0.732-0.875-1.425-1.465-2.016
			c-4.418-4.428-10.296-6.866-16.55-6.866H264.084v-34.693c0-4.427-3.412-8.287-7.836-8.419c-4.579-0.137-8.332,3.533-8.332,8.081
			v35.032H89.872c-6.254,0-12.132,2.439-16.55,6.866c-0.59,0.591-1.066,1.283-1.465,2.016l-23.352,42.897V182.849l31.416,15.708
			c1.123,0.562,2.361,0.854,3.616,0.854h164.378v38.54c-18.428,3.755-32.337,20.087-32.337,39.607
			c0,19.521,13.909,35.852,32.337,39.607v3.169c0,4.427,3.412,8.287,7.836,8.419c4.579,0.137,8.332-3.533,8.332-8.081v-3.509
			c18.428-3.755,32.337-20.087,32.337-39.607c0-19.521-13.909-35.852-32.337-39.607v-38.539h56.202c4.465,0,8.084-3.62,8.084-8.084
			c0-4.465-3.62-8.084-8.084-8.084H91.621V28.653c0-6.895,5.59-12.484,12.484-12.484h303.79c6.894,0,12.484,5.589,12.484,12.484
			v154.59h-64.447c-4.465,0-8.084,3.62-8.084,8.084c0,4.465,3.62,8.084,8.084,8.084h72.531c1.256,0,2.493-0.292,3.616-0.854
			l31.415-15.708V472.158z M256,253.305c13.372,0,24.253,10.879,24.253,24.253c0,13.373-10.88,24.253-24.253,24.253
			s-24.253-10.879-24.253-24.253C231.747,264.184,242.628,253.305,256,253.305z M463.495,164.772l-26.947,13.474V70.063h13.551
			c7.387,0,13.396,6.009,13.396,13.395V164.772z"/>
	</g>
</g>
<g>
	<g>
		<circle cx="256" cy="277.558" r="10.779"/>
	</g>
</g>
<g>
</g>
<g>
</g>
<g>
</g>
<g>
</g>
<g>
</g>
<g>
</g>
<g>
</g>
<g>
</g>
<g>
</g>
<g>
</g>
<g>
</g>
<g>
</g>
<g>
</g>
<g>
</g>
<g>
</g>
</svg>
