<?xml version="1.0" encoding="iso-8859-1"?>
<!-- Generator: Adobe Illustrator 19.0.0, SVG Export Plug-In . SVG Version: 6.00 Build 0)  -->
<svg version="1.1" id="Layer_1" xmlns="http://www.w3.org/2000/svg" xmlns:xlink="http://www.w3.org/1999/xlink" x="0px" y="0px"
	 viewBox="0 0 501.624 501.624" style="enable-background:new 0 0 501.624 501.624;" xml:space="preserve">
<g transform="translate(1 1)">
	<g>
		<g>
			<path d="M299.757,264.768c5.036,0,8.393-20.144,8.393-25.18s-3.357-8.393-8.393-8.393s-8.393,3.357-8.393,8.393
				S294.72,264.768,299.757,264.768z"/>
			<path d="M308.15,180.834c-5.036,0-8.393,3.357-8.393,8.393s3.357,25.18,8.393,25.18s8.393-20.144,8.393-25.18
				S313.186,180.834,308.15,180.834z"/>
			<path d="M199.035,273.162c0-5.036-3.357-8.393-8.393-8.393s-8.393,3.357-8.393,8.393s3.357,25.18,8.393,25.18
				S199.035,278.198,199.035,273.162z"/>
			<path d="M165.461,306.736c-5.036,0-8.393,3.357-8.393,8.393c0,5.036,3.357,25.18,8.393,25.18c5.036,0,8.393-20.144,8.393-25.18
				C173.855,310.093,170.497,306.736,165.461,306.736z"/>
			<path d="M249.396,256.375c-5.036,0-8.393,3.357-8.393,8.393s3.357,25.18,8.393,25.18s8.393-20.144,8.393-25.18
				S254.432,256.375,249.396,256.375z"/>
			<path d="M291.363,298.342c-5.036,0-8.393,3.357-8.393,8.393s3.357,25.18,8.393,25.18s8.393-20.144,8.393-25.18
				S296.399,298.342,291.363,298.342z"/>
			<path d="M207.429,331.916c-5.036,0-8.393,3.357-8.393,8.393c0,5.036,3.357,25.18,8.393,25.18s8.393-20.144,8.393-25.18
				C215.822,335.273,212.465,331.916,207.429,331.916z"/>
			<path d="M266.183,340.309c-5.036,0-8.393,3.357-8.393,8.393c0,5.036,3.357,25.18,8.393,25.18s8.393-20.144,8.393-25.18
				C274.576,343.667,271.219,340.309,266.183,340.309z"/>
			<path d="M308.15,382.277c-5.036,0-8.393,3.357-8.393,8.393c0,5.036,3.357,25.18,8.393,25.18s8.393-20.144,8.393-25.18
				C316.543,385.634,313.186,382.277,308.15,382.277z"/>
			<path d="M232.609,382.277c-5.036,0-8.393,3.357-8.393,8.393c0,5.036,3.357,25.18,8.393,25.18s8.393-20.144,8.393-25.18
				C241.002,385.634,237.645,382.277,232.609,382.277z"/>
			<path d="M199.035,407.457c-5.036,0-8.393,3.357-8.393,8.393s3.357,25.18,8.393,25.18s8.393-20.144,8.393-25.18
				S204.071,407.457,199.035,407.457z"/>
			<path d="M266.183,432.637c-5.036,0-8.393,3.357-8.393,8.393c0,5.036,3.357,25.18,8.393,25.18s8.393-20.144,8.393-25.18
				C274.576,435.995,271.219,432.637,266.183,432.637z"/>
			<path d="M341.724,273.162c-5.036,0-8.393,3.357-8.393,8.393c0,5.036,3.357,25.18,8.393,25.18s8.393-20.144,8.393-25.18
				C350.117,276.519,346.76,273.162,341.724,273.162z"/>
			<path d="M165.461,231.195c0-5.036-3.357-8.393-8.393-8.393s-8.393,3.357-8.393,8.393s3.357,25.18,8.393,25.18
				S165.461,236.231,165.461,231.195z"/>
			<path d="M241.002,239.588c5.036,0,8.393-20.144,8.393-25.18s-3.357-8.393-8.393-8.393s-8.393,3.357-8.393,8.393
				S235.966,239.588,241.002,239.588z"/>
			<path d="M373.111,185.236c0.877-14.427-0.784-32.091-9.564-48.887c-11.751-21.823-32.734-37.771-63.79-47.003
				c-1.679-10.072-6.715-19.305-15.108-26.02c2.518-6.715,7.554-13.43,15.108-15.948c10.072-3.357,16.787-12.59,16.787-23.502
				c0-7.554-4.197-15.108-10.911-20.144c-6.715-5.036-15.108-5.875-22.662-3.357c-27.698,10.072-47.003,34.413-50.361,62.951
				c-9.233,6.715-15.108,15.948-16.787,26.02c-30.216,2.518-53.718,13.43-69.666,31.895c-25.18,29.377-22.662,67.148-22.662,68.826
				c0,0.109,0.01,0.215,0.015,0.323c-28.317,50.489-16.802,98.968-16.802,102.077l33.574,99.882
				c29.377,111.633,97.364,109.115,109.115,107.436c1.679,0.839,4.197,0.839,7.554,0.839c8.393,0,20.984-1.679,36.092-9.233
				c31.056-15.108,52.879-48.682,66.308-98.203l33.574-101.561C392.924,289.969,405.21,237.499,373.111,185.236z M159.586,132.152
				c14.269-15.948,36.092-25.18,65.469-26.859c4.197,0,7.554-4.197,7.554-8.393c0-9.233,5.036-16.787,12.59-21.823
				c2.518-1.679,4.197-4.197,4.197-6.715c1.679-23.502,16.787-44.485,39.449-53.718c2.518-1.679,5.875,0,6.715,0.839
				c1.679,1.679,3.357,4.197,3.357,6.715c0,4.197-2.518,6.715-5.875,8.393c-14.269,5.875-25.18,19.305-26.859,35.252
				c0,3.357,1.679,6.715,4.197,8.393c8.393,5.036,12.59,12.59,12.59,21.823c0,4.197,3.357,7.554,6.715,8.393
				c28.538,7.554,48.682,20.984,58.754,40.289c7.3,13.871,8.883,28.373,8.068,40.2c-0.334,0.839-0.514,1.722-0.514,2.607
				c0,1.14,0,1.89,0,2.518c-36.931-64.63-68.826-67.987-72.184-67.987h-0.839c-5.036,0-9.233,2.518-11.751,6.715
				c-4.52,6.457-5.55,15.912-3.497,29.477c0.515,4.027,1.321,8.41,2.422,13.131c-18.168-14.819-19.856-32.525-19.935-38.239
				c0.007-0.563,0.027-0.92,0.027-1.012c0-0.096-0.015-0.192-0.018-0.288c0.008-0.292,0.018-0.488,0.018-0.551
				c0-3.357-1.679-6.715-4.197-8.393c-3.357-1.679-6.715-1.679-9.233,0c-29.377,20.144-39.449,50.361-43.646,70.505
				c-5.875-9.233-10.911-24.341-10.911-46.164c0-3.357-1.679-6.715-5.036-7.554c-0.69-0.69-1.942-0.811-2.834-0.833
				c-0.785-0.076-1.557-0.024-2.303,0.149c-1.547,0.28-2.634,0.901-3.256,1.524l-0.839,0.839h0l-25.18,25.18
				C145.317,156.493,149.514,143.063,159.586,132.152z M375.297,286.591l-33.574,101.561
				c-27.698,104.918-88.131,95.685-90.649,94.846c-0.839,0-0.839,0-1.679,0s-0.839,0-1.679,0
				c-2.518,0.839-62.951,10.911-90.649-94.846l-33.574-99.882c0-0.839-11.751-52.039,21.823-100.721l21.823-21.823
				c5.875,39.449,26.859,54.557,27.698,55.397c2.518,2.518,5.875,2.518,8.393,0.839c2.518-1.679,4.197-4.197,4.197-7.554
				c0-0.839,0-40.289,26.859-67.148c4.197,15.108,14.269,36.092,45.325,49.521c1.679,0.839,4.197,0.839,6.715,0
				c6.715-3.357,5.036-10.072,4.197-12.59c-10.072-34.413-7.554-43.646-6.715-45.325c5.875,1.679,34.413,11.751,67.148,78.898
				c0.839,3.357,4.197,5.036,7.554,5.036c1.065,0,2.13-0.255,3.087-0.708c2.199-1.024,4.15-3.117,5.306-6.006
				c0.085-0.17,0.319-0.753,0.647-1.689C382.623,253.142,375.297,286.591,375.297,286.591z"/>
		</g>
	</g>
</g>
<g>
</g>
<g>
</g>
<g>
</g>
<g>
</g>
<g>
</g>
<g>
</g>
<g>
</g>
<g>
</g>
<g>
</g>
<g>
</g>
<g>
</g>
<g>
</g>
<g>
</g>
<g>
</g>
<g>
</g>
</svg>
