<?xml version="1.0" encoding="iso-8859-1"?>
<!-- Generator: Adobe Illustrator 18.0.0, SVG Export Plug-In . SVG Version: 6.00 Build 0)  -->
<!DOCTYPE svg PUBLIC "-//W3C//DTD SVG 1.1//EN" "http://www.w3.org/Graphics/SVG/1.1/DTD/svg11.dtd">
<svg version="1.1" id="Capa_1" xmlns="http://www.w3.org/2000/svg" xmlns:xlink="http://www.w3.org/1999/xlink" x="0px" y="0px"
	 viewBox="0 0 462.861 462.861" style="enable-background:new 0 0 462.861 462.861;" xml:space="preserve">
<path d="M457.688,274.63c-9.308-14.592-28.466-19.463-43.617-11.088l-17.856,9.873V102.297c0-3.59-2.91-6.5-6.5-6.5h-58.408
	c5.232-6.266,8.387-14.323,8.387-23.106c0-19.909-16.197-36.106-36.105-36.106c-12.242,0-23.074,6.13-29.606,15.476
	c-6.532-9.346-17.364-15.476-29.605-15.476c-19.909,0-36.106,16.197-36.106,36.106c0,8.782,3.155,16.84,8.387,23.106H158.25
	c-3.59,0-6.5,2.91-6.5,6.5v104.542c-2.008-0.169-4.019-0.296-6.027-0.333c-24.264-0.443-47.577,12.212-60.885,33.031
	c-13.106,20.502-30.989,38.08-51.712,50.833L3.095,308.85c-3.058,1.881-4.011,5.885-2.13,8.942c1.883,3.058,5.888,4.011,8.942,2.129
	l30.031-18.481c22.383-13.774,41.696-32.759,55.853-54.902c10.891-17.038,29.964-27.407,49.693-27.035
	c4.713,0.086,148.468,28.47,148.468,28.47c4.217,0.846,7.808,3.312,10.109,6.945c2.303,3.633,3,7.933,1.964,12.108
	c-1.94,7.82-9.696,12.934-17.643,11.64l-84.709-13.766c-7.367-1.194-14.971,0.739-20.868,5.313
	c-5.896,4.573-9.663,11.458-10.337,18.889c-1.264,13.948,8.562,26.705,22.369,29.043l97.197,16.464
	c10.054,1.703,20.497-0.077,29.418-5.008l98.907-54.684c9.161-5.063,20.742-2.119,26.369,6.704
	c2.863,4.488,3.802,9.821,2.642,15.017c-1.159,5.197-4.277,9.625-8.778,12.47l-127.828,80.782
	c-11.524,7.284-25.292,10.174-38.775,8.136l-150.972-22.808c-9.367-1.415-18.888,0.672-26.803,5.879l-50.554,33.247
	c-3,1.972-3.832,6.003-1.859,9.002c1.249,1.899,3.322,2.929,5.437,2.929c1.226,0,2.465-0.347,3.565-1.07l50.554-33.247
	c5.232-3.442,11.523-4.823,17.719-3.886l150.972,22.808c16.569,2.504,33.496-1.048,47.662-10.001l127.828-80.782
	c7.445-4.705,12.603-12.03,14.521-20.626C463.978,290.877,462.426,282.054,457.688,274.63z M303.589,49.585
	c12.74,0,23.105,10.365,23.105,23.106s-10.365,23.106-23.105,23.106h-23.106V72.691C280.482,59.95,290.848,49.585,303.589,49.585z
	 M221.27,72.691c0-12.741,10.365-23.106,23.106-23.106c12.74,0,23.105,10.365,23.105,23.106v23.106h-23.105
	C231.636,95.797,221.27,85.432,221.27,72.691z M244.377,108.797h29.605h29.606h79.626v42.982H164.75v-42.982H244.377z
	 M315.163,318.226c-6.355,3.513-13.798,4.78-20.956,3.567l-97.198-16.464c-7.155-1.212-12.248-7.824-11.593-15.053
	c0.354-3.908,2.257-7.384,5.357-9.79c3.101-2.405,6.943-3.384,10.814-2.753l84.71,13.766c14.566,2.366,28.787-7.005,32.346-21.341
	c1.899-7.654,0.62-15.538-3.601-22.199c-4.222-6.66-10.805-11.182-18.536-12.732L164.75,208.814v-44.035h218.465v115.823
	L315.163,318.226z"/>
<g>
</g>
<g>
</g>
<g>
</g>
<g>
</g>
<g>
</g>
<g>
</g>
<g>
</g>
<g>
</g>
<g>
</g>
<g>
</g>
<g>
</g>
<g>
</g>
<g>
</g>
<g>
</g>
<g>
</g>
</svg>
