<?xml version="1.0" encoding="iso-8859-1"?>
<!-- Generator: Adobe Illustrator 16.0.0, SVG Export Plug-In . SVG Version: 6.00 Build 0)  -->
<!DOCTYPE svg PUBLIC "-//W3C//DTD SVG 1.1//EN" "http://www.w3.org/Graphics/SVG/1.1/DTD/svg11.dtd">
<svg version="1.1" id="Capa_1" xmlns="http://www.w3.org/2000/svg" xmlns:xlink="http://www.w3.org/1999/xlink" x="0px" y="0px"
	 width="388.024px" height="388.024px" viewBox="0 0 388.024 388.024" style="enable-background:new 0 0 388.024 388.024;"
	 xml:space="preserve">
<g>
	<path style="fill:#030303;" d="M262.568,136.421v171.346c0,37.796-30.757,68.547-68.559,68.547s-68.554-30.751-68.554-68.547
		V57.821c0-25.422,20.688-46.11,46.11-46.11c25.428,0,46.11,20.688,46.11,46.11v192.834c0,14.523-11.825,26.349-26.349,26.349
		c-14.526,0-26.349-11.825-26.349-26.349V136.421h-11.71v114.234c0,20.984,17.074,38.059,38.059,38.059
		c20.116,0,36.589-15.695,37.933-35.475h0.126V57.821C229.387,25.94,203.45,0,171.566,0c-31.881,0-57.821,25.94-57.821,57.821
		V314.72h0.352c3.542,41.004,37.999,73.305,79.912,73.305c44.263,0,80.27-36,80.27-80.258V136.421H262.568z"/>
</g>
<g>
</g>
<g>
</g>
<g>
</g>
<g>
</g>
<g>
</g>
<g>
</g>
<g>
</g>
<g>
</g>
<g>
</g>
<g>
</g>
<g>
</g>
<g>
</g>
<g>
</g>
<g>
</g>
<g>
</g>
</svg>
