<?xml version='1.0' encoding='utf-8'?>
<!DOCTYPE svg PUBLIC '-//W3C//DTD SVG 1.1//EN' 'http://www.w3.org/Graphics/SVG/1.1/DTD/svg11.dtd'>
<svg version="1.1" xmlns="http://www.w3.org/2000/svg" viewBox="0 0 512 512" xmlns:xlink="http://www.w3.org/1999/xlink" enable-background="new 0 0 512 512">
  <g>
    <path d="M501,52.4v-21c0-11.3-9.1-20.4-20.4-20.4h-21C369.2,11,291.1,65,256,142.5C220.9,65,142.8,11,52.4,11h-21   C20.1,11,11,20.1,11,31.4v21c0,90.4,54,168.5,131.5,203.6C65,291.1,11,369.2,11,459.6v21c0,11.3,9.1,20.4,20.4,20.4h21   c90.4,0,168.5-54,203.6-131.5C291.1,447,369.2,501,459.6,501h21c11.3,0,20.4-9.1,20.4-20.4v-21c0-59.7-23.2-115.8-65.4-157.9   C416.2,282.3,394,267,369.8,256c24.2-11,46.4-26.3,65.8-45.6C477.8,168.2,501,112.1,501,52.4z M51.8,52.4v-0.6h0.6   c100.7,0,182.5,81.9,182.5,182.6v0.6h-0.6C133.7,235,51.8,153.1,51.8,52.4z M235,277.6c0,100.7-81.9,182.5-182.5,182.5h-0.6v-0.6   c0-100.7,81.9-182.5,182.6-182.5h0.6V277.6z M460.2,459.6v0.6h-0.6c-100.7,0-182.5-81.9-182.5-182.5V277h0.6   c48.8,0,94.6,19,129.1,53.5C441.2,365,460.2,410.8,460.2,459.6z M277.6,235H277v-0.6c0-100.7,81.9-182.5,182.5-182.5h0.6v0.6   c0,48.8-19,94.6-53.5,129.1C372.2,216,326.4,235,277.6,235z"/>
  </g>
</svg>
