<?xml version="1.0" encoding="iso-8859-1"?>
<!-- Generator: Adobe Illustrator 19.0.0, SVG Export Plug-In . SVG Version: 6.00 Build 0)  -->
<svg version="1.1" id="Layer_1" xmlns="http://www.w3.org/2000/svg" xmlns:xlink="http://www.w3.org/1999/xlink" x="0px" y="0px"
	 viewBox="0 0 512 512" style="enable-background:new 0 0 512 512;" xml:space="preserve">
<g transform="translate(1 1)">
	<g>
		<g>
			<path d="M141.507,257.56c-1.707-1.707-3.413-2.56-5.973-2.56s-4.267,0.853-5.973,2.56l-93.867,93.867
				c-3.413,3.413-3.413,8.533,0,11.947l25.6,25.6c1.707,1.707,3.413,2.56,5.973,2.56s4.267-0.853,5.973-2.56l2.56-2.56V434.2
				c0,5.12,3.413,8.533,8.533,8.533h102.4c5.12,0,8.533-3.413,8.533-8.533v-47.787l2.56,2.56c1.707,1.707,3.413,2.56,5.973,2.56
				s4.267-0.853,5.973-2.56l25.6-25.6c1.707-1.707,2.56-3.413,2.56-5.973s-0.853-4.267-2.56-5.973L141.507,257.56z M178.2,425.667
				H92.867v-56.32l42.667-42.667l42.667,42.667V425.667z M203.8,371.053l-11.093-11.093l-51.2-51.2
				c-0.853-1.707-2.56-2.56-4.267-2.56c0,0-0.853,0-1.707,0c-2.56,0-4.267,0.853-5.973,2.56l-51.2,51.2l-11.093,11.093L53.613,357.4
				l81.92-81.92l81.92,81.92L203.8,371.053z"/>
			<path d="M263.533,297.667c0,5.12,3.413,8.533,8.533,8.533H434.2c5.12,0,8.533-3.413,8.533-8.533c0-5.12-3.413-8.533-8.533-8.533
				H272.067C266.947,289.133,263.533,292.547,263.533,297.667z"/>
			<path d="M434.2,340.333h-76.8c-5.12,0-8.533,3.413-8.533,8.533c0,5.12,3.413,8.533,8.533,8.533h76.8
				c5.12,0,8.533-3.413,8.533-8.533C442.733,343.747,439.32,340.333,434.2,340.333z"/>
			<path d="M272.067,357.4h51.2c5.12,0,8.533-3.413,8.533-8.533c0-5.12-3.413-8.533-8.533-8.533h-51.2
				c-5.12,0-8.533,3.413-8.533,8.533C263.533,353.987,266.947,357.4,272.067,357.4z"/>
			<path d="M434.2,391.533h-42.667c-5.12,0-8.533,3.413-8.533,8.533s3.413,8.533,8.533,8.533H434.2c5.12,0,8.533-3.413,8.533-8.533
				S439.32,391.533,434.2,391.533z"/>
			<path d="M357.4,391.533h-85.333c-5.12,0-8.533,3.413-8.533,8.533s3.413,8.533,8.533,8.533H357.4c5.12,0,8.533-3.413,8.533-8.533
				S362.52,391.533,357.4,391.533z"/>
			<path d="M433.997,101.4c7.715,10.418,20.118,17.067,34.336,17.067C492.227,118.467,511,99.693,511,75.8
				s-18.773-42.667-42.667-42.667c-14.218,0-26.621,6.649-34.336,17.067H7.533C2.413,50.2-1,53.613-1,58.733v34.133
				c0,5.12,3.413,8.533,8.533,8.533h85.333v34.133H33.133C14.36,135.533-1,150.893-1,169.667v273.067
				c0,18.773,15.36,34.133,34.133,34.133h409.6c18.773,0,34.133-15.36,34.133-34.133V169.667c0-18.773-15.36-34.133-34.133-34.133
				H383V101.4H433.997z M468.333,50.2c14.507,0,25.6,11.093,25.6,25.6s-11.093,25.6-25.6,25.6c-9.144,0-16.929-4.41-21.437-11.302
				c-0.199-0.519-0.435-1.026-0.75-1.497c-1.234-2.056-2.063-4.112-2.6-6.168c-0.216-0.856-0.392-1.731-0.523-2.625
				c-0.002-0.017-0.005-0.034-0.007-0.05c-0.058-0.403-0.107-0.81-0.148-1.22c-0.009-0.095-0.015-0.189-0.023-0.284
				c-0.03-0.345-0.057-0.691-0.075-1.041c-0.022-0.471-0.037-0.942-0.037-1.412c0-0.439,0.011-0.874,0.031-1.306
				c0.001-0.023,0.002-0.046,0.003-0.069c0.02-0.411,0.05-0.818,0.088-1.222c0.009-0.093,0.02-0.186,0.03-0.279
				c0.018-0.176,0.042-0.351,0.064-0.526c0.421-3.133,1.545-6.266,4.051-9.399c0.672-1.008,1.069-2.15,1.212-3.318
				C452.838,53.845,460.023,50.2,468.333,50.2z M16.067,67.267h410.425c-0.017,0.085-0.029,0.172-0.045,0.258
				c-0.773,2.529-0.781,5.798-0.781,8.276s0.007,5.747,0.781,8.276c0.016,0.085,0.028,0.172,0.045,0.258H16.067V67.267z
				 M442.733,152.6c9.387,0,17.067,7.68,17.067,17.067v273.067c0,9.387-7.68,17.067-17.067,17.067h-409.6
				c-9.387,0-17.067-7.68-17.067-17.067V169.667c0-9.387,7.68-17.067,17.067-17.067h59.733v18.154
				c-14.679,3.814-25.6,17.216-25.6,33.046c0,18.773,15.36,34.133,34.133,34.133c18.773,0,34.133-15.36,34.133-34.133
				c0-15.829-10.921-29.232-25.6-33.046V152.6h256v18.154c-14.679,3.814-25.6,17.216-25.6,33.046
				c0,18.773,15.36,34.133,34.133,34.133c18.773,0,34.133-15.36,34.133-34.133c0-15.83-10.921-29.232-25.6-33.046V152.6H442.733z
				 M101.4,203.8c5.12,0,8.533-3.413,8.533-8.533v-6.212c5.086,2.963,8.533,8.466,8.533,14.746c0,9.387-7.68,17.067-17.067,17.067
				c-9.387,0-17.067-7.68-17.067-17.067c0-6.28,3.447-11.782,8.533-14.746v6.212C92.867,200.387,96.28,203.8,101.4,203.8z
				 M374.467,203.8c5.12,0,8.533-3.413,8.533-8.533v-6.212c5.086,2.963,8.533,8.466,8.533,14.746c0,9.387-7.68,17.067-17.067,17.067
				S357.4,213.187,357.4,203.8c0-6.28,3.447-11.782,8.533-14.746v6.212C365.933,200.387,369.347,203.8,374.467,203.8z
				 M365.933,135.533h-256V101.4h256V135.533z"/>
		</g>
	</g>
</g>
<g>
</g>
<g>
</g>
<g>
</g>
<g>
</g>
<g>
</g>
<g>
</g>
<g>
</g>
<g>
</g>
<g>
</g>
<g>
</g>
<g>
</g>
<g>
</g>
<g>
</g>
<g>
</g>
<g>
</g>
</svg>
