<?xml version="1.0" encoding="iso-8859-1"?>
<!-- Generator: Adobe Illustrator 19.0.0, SVG Export Plug-In . SVG Version: 6.00 Build 0)  -->
<svg version="1.1" id="Layer_1" xmlns="http://www.w3.org/2000/svg" xmlns:xlink="http://www.w3.org/1999/xlink" x="0px" y="0px"
	 viewBox="0 0 512 512" style="enable-background:new 0 0 512 512;" xml:space="preserve">
<g>
	<g>
		<path d="M501.801,425.562h-20.398V271.554h15.299c5.632,0,10.199-4.566,10.199-10.199c0-5.633-4.567-10.199-10.199-10.199h-15.299
			v-8.159h15.299c5.632,0,10.199-4.566,10.199-10.199s-4.567-10.199-10.199-10.199h-15.299c0-25.027-20.361-45.386-45.386-45.386
			h-38.247v-56.096h3.06c24.182,0,43.857-19.674,43.857-43.857s-19.674-43.857-43.857-43.857H111.171
			c-24.182,0-43.857,19.674-43.857,43.857s19.674,43.857,43.857,43.857h3.06v56.096H75.984c-25.026,0-45.386,20.36-45.386,45.386
			H15.299c-5.632,0-10.199,4.566-10.199,10.199s4.567,10.199,10.199,10.199h15.299v8.159H15.299
			c-5.632,0-10.199,4.566-10.199,10.199c0,5.633,4.567,10.199,10.199,10.199h15.299v154.008H10.199
			C4.567,425.562,0,430.128,0,435.761v32.637c0,5.633,4.567,10.199,10.199,10.199h491.602c5.632,0,10.199-4.566,10.199-10.199
			v-32.637C512,430.128,507.433,425.562,501.801,425.562z M111.171,100.717c-12.936,0-23.458-10.524-23.458-23.458
			s10.523-23.458,23.458-23.458h289.657c12.936,0,23.458,10.524,23.458,23.458s-10.523,23.458-23.458,23.458H387.57
			c-5.632,0-10.199,4.566-10.199,10.199v66.295H134.63v-66.295c0-5.633-4.567-10.199-10.199-10.199H111.171z M50.996,222.598
			c0-13.778,11.209-24.988,24.988-24.988h360.032c13.779,0,24.988,11.21,24.988,24.988v202.964H50.996V222.598z M491.602,458.199
			H20.398V445.96h471.203V458.199z"/>
	</g>
</g>
<g>
	<g>
		<path d="M418.677,214.438h-8.159c-5.632,0-10.199,4.566-10.199,10.199s4.567,10.199,10.199,10.199h8.159
			c5.632,0,10.199-4.566,10.199-10.199S424.309,214.438,418.677,214.438z"/>
	</g>
</g>
<g>
	<g>
		<path d="M375.841,214.438H93.323c-5.632,0-10.199,4.566-10.199,10.199s4.567,10.199,10.199,10.199h282.518
			c5.632,0,10.199-4.566,10.199-10.199S381.473,214.438,375.841,214.438z"/>
	</g>
</g>
<g>
</g>
<g>
</g>
<g>
</g>
<g>
</g>
<g>
</g>
<g>
</g>
<g>
</g>
<g>
</g>
<g>
</g>
<g>
</g>
<g>
</g>
<g>
</g>
<g>
</g>
<g>
</g>
<g>
</g>
</svg>
