<?xml version="1.0" encoding="iso-8859-1"?>
<!-- Generator: Adobe Illustrator 19.0.0, SVG Export Plug-In . SVG Version: 6.00 Build 0)  -->
<svg version="1.1" id="Capa_1" xmlns="http://www.w3.org/2000/svg" xmlns:xlink="http://www.w3.org/1999/xlink" x="0px" y="0px"
	 viewBox="0 0 490 490" style="enable-background:new 0 0 490 490;" xml:space="preserve">
<g>
	<g>
		<path d="M446.186,252.98H299.201l-74.194-103.419h-57.631l29.69,103.419H77.355l-35.395-48.51H0l18.901,100.668
			c0.763,23.926,20.113,43.141,43.799,43.141h134.128l-29.453,102.597h57.631l73.604-102.597h147.574
			c24.165,0,43.814-20.023,43.814-44.622v-6.056C490,273.003,470.351,252.98,446.186,252.98z M209.276,180.186l51.62,71.942h-32.225
			l-20.651-71.942H209.276z M209.276,420.251h-1.256l20.651-71.942h32.225L209.276,420.251z M459.375,303.658
			c0,7.716-5.922,13.997-13.189,13.997H62.701c-7.282,0-13.204-6.281-13.204-14.072l-8.957-49.107l21.264,29.13h384.383
			c7.267,0,13.189,6.28,13.189,13.997V303.658z"/>
	</g>
	<path d="M423.629,111.625V71.762c6.378,2.854,10.324,8.287,11.836,16.308l24.953-3.364c-1.703-10.196-5.648-18.335-11.837-24.425
		c-6.178-6.079-14.492-9.772-24.953-11.067v-10.09h-14.302v10.09c-11.308,1.157-20.373,5.528-27.174,13.104
		c-6.813,7.586-10.208,16.956-10.208,28.096c0,11.014,3.004,20.383,9.024,28.097c6.019,7.724,15.465,13.485,28.359,17.285v42.728
		c-3.554-1.761-6.77-4.615-9.668-8.562c-2.898-3.936-4.865-8.637-5.912-14.069L368,158.746c1.967,13.391,6.505,23.757,13.613,31.1
		c7.098,7.342,16.333,11.736,27.714,13.157v18.558h14.302v-19.068c12.82-1.899,22.838-7.066,30.041-15.501
		c7.193-8.425,10.8-18.791,10.8-31.1c0-11.014-2.866-20.043-8.589-27.078C450.159,121.779,439.412,116.049,423.629,111.625z
		 M409.328,106.734c-4.274-1.899-7.468-4.404-9.573-7.491c-2.105-3.099-3.152-6.441-3.152-10.049c0-3.947,1.153-7.544,3.448-10.812
		c2.306-3.257,5.395-5.57,9.277-6.928V106.734z M435.667,172.869c-3.099,3.778-7.108,6.133-12.037,7.088v-39.768
		c5.923,1.762,10.176,4.297,12.778,7.597c2.591,3.289,3.892,7.226,3.892,11.778C440.3,164.657,438.756,169.092,435.667,172.869z"/>
</g>
<g>
</g>
<g>
</g>
<g>
</g>
<g>
</g>
<g>
</g>
<g>
</g>
<g>
</g>
<g>
</g>
<g>
</g>
<g>
</g>
<g>
</g>
<g>
</g>
<g>
</g>
<g>
</g>
<g>
</g>
</svg>
