<?xml version="1.0" encoding="iso-8859-1"?>
<!-- Generator: Adobe Illustrator 18.0.0, SVG Export Plug-In . SVG Version: 6.00 Build 0)  -->
<!DOCTYPE svg PUBLIC "-//W3C//DTD SVG 1.1//EN" "http://www.w3.org/Graphics/SVG/1.1/DTD/svg11.dtd">
<svg version="1.1" id="Capa_1" xmlns="http://www.w3.org/2000/svg" xmlns:xlink="http://www.w3.org/1999/xlink" x="0px" y="0px"
	 viewBox="0 0 397.757 397.757" style="enable-background:new 0 0 397.757 397.757;" xml:space="preserve">
<g>
	<path d="M247.728,35.642c-3.363-3.475-8.016-5.326-12.771-5.058c-4.98,0.273-9.508,2.729-12.752,6.916
		c-2.05,2.65-4.01,5.385-5.876,8.198V17.453C216.329,7.829,208.5,0,198.876,0c-9.623,0-17.451,7.829-17.451,17.453v28.246
		c-1.867-2.814-3.829-5.551-5.88-8.202c-3.24-4.185-7.768-6.64-12.75-6.913c-4.75-0.274-9.407,1.583-12.776,5.065
		c-6.394,6.627-7.069,16.837-1.588,24.303c10.412,14.052,17.472,30.948,20.608,49.153c-12.548,6.105-20.574,16.041-20.574,27.475
		c0,0.09,0.002,0.179,0.005,0.269c0.28,7.837,7.286,192.689,43.887,257.113c1.333,2.346,3.823,3.795,6.521,3.795
		c2.698,0,5.188-1.449,6.521-3.795c36.601-64.424,43.604-249.276,43.885-257.114c0.003-0.089,0.005-0.178,0.005-0.268
		c0-11.434-8.027-21.371-20.575-27.477c3.138-18.205,10.198-35.104,20.627-49.177C254.805,52.487,254.13,42.277,247.728,35.642z
		 M234.288,136.463c-0.084,2.207-1.043,26.284-3.742,59.207h-25.319c-4.143,0-7.5,3.357-7.5,7.5c0,4.143,3.357,7.5,7.5,7.5h24.017
		c-1.878,20.497-4.389,43.334-7.702,65.969h-16.232c-4.143,0-7.5,3.357-7.5,7.5c0,4.142,3.357,7.5,7.5,7.5h13.907
		c-5.048,30.765-11.679,60.061-20.338,81.262c-12.428-30.43-20.681-77.545-26.067-121.746h19.679c4.143,0,7.5-3.357,7.5-7.5
		c0-4.143-3.357-7.5-7.5-7.5h-21.415c-2.739-24.962-4.574-48.199-5.755-65.972h27.081c4.143,0,7.5-3.357,7.5-7.5
		c0-4.143-3.357-7.5-7.5-7.5h-28.008c-0.612-10.769-0.884-17.595-0.927-18.72c0.082-5.744,6.16-11.886,16.042-15.522
		c0.26-0.079,7.368-3.242,19.37-3.242c9.998,0,19.108,3.164,19.375,3.244C228.131,124.58,234.206,130.721,234.288,136.463z
		 M237.271,51.022c-11.366,15.338-19.214,33.601-22.938,53.243c-4.853-1.016-10.039-1.566-15.454-1.566
		c-5.416,0-10.604,0.551-15.458,1.567c-3.723-19.642-11.568-37.901-22.917-53.218c-1.127-1.534-0.945-3.583,0.305-4.978
		c1.068-1.192,2.343-0.081,2.875,0.606c7.47,9.656,13.611,20.592,18.254,32.501c1.311,3.362,4.831,5.308,8.374,4.647
		c3.546-0.667,6.114-3.764,6.114-7.371V17.453c0-1.353,1.1-2.453,2.451-2.453c1.352,0,2.453,1.101,2.453,2.453v59.002
		c0,3.607,2.568,6.704,6.114,7.371c3.536,0.659,6.899-1.354,8.374-4.647c5.059-11.3,9.527-23.803,18.25-32.497
		c1.809-1.803,2.534-0.966,2.873-0.616C238.247,47.419,238.377,49.515,237.271,51.022z"/>
</g>
<g>
</g>
<g>
</g>
<g>
</g>
<g>
</g>
<g>
</g>
<g>
</g>
<g>
</g>
<g>
</g>
<g>
</g>
<g>
</g>
<g>
</g>
<g>
</g>
<g>
</g>
<g>
</g>
<g>
</g>
</svg>
